<svg version="1.1" id="Layer_1" xmlns="http://www.w3.org/2000/svg" xmlns:xlink="http://www.w3.org/1999/xlink" x="0px" y="0px"
	 width="100%" viewBox="0 0 1024 1024" enable-background="new 0 0 1024 1024" xml:space="preserve">
<path fill="#000000" opacity="1.000000" stroke="none" 
	d="
M575.809692,732.261658 
	C574.596863,729.828064 574.945557,727.630127 574.944336,725.484375 
	C574.910828,667.163574 574.898743,608.842773 574.883240,550.521973 
	C574.882629,548.220947 574.883118,545.919922 574.883118,543.770081 
	C571.951721,542.446838 569.794739,543.753113 567.638977,544.309143 
	C531.543457,553.618958 495.447937,562.929565 459.389343,572.380676 
	C449.978699,574.847290 451.363403,574.016724 451.355591,583.061340 
	C451.314209,630.884460 451.340424,678.707642 451.335480,726.530762 
	C451.334778,733.304871 451.315155,733.319763 444.418823,733.320679 
	C409.259674,733.325378 374.100159,733.247986 338.941742,733.409607 
	C334.278442,733.431030 332.583313,732.239807 332.587494,727.296509 
	C332.707794,584.327087 332.711914,441.357605 332.605072,298.388245 
	C332.601471,293.564636 334.176208,291.967102 338.877563,291.975922 
	C374.369507,292.042664 409.862152,292.018250 445.353455,291.820801 
	C450.324036,291.793182 451.432007,293.740936 451.422485,298.340576 
	C451.303253,355.828003 451.357208,413.315796 451.362549,470.803497 
	C451.363708,483.262726 451.370697,483.319092 463.319855,480.230499 
	C498.757660,471.070587 534.161438,461.777313 569.638672,452.773346 
	C574.382874,451.569336 574.975342,448.911133 574.967834,444.838562 
	C574.878540,396.682404 574.894775,348.526062 574.885925,300.369751 
	C574.884460,292.222717 574.918274,292.118835 583.318542,292.093719 
	C617.644165,291.991150 651.969910,291.922913 686.295654,291.882050 
	C693.298706,291.873718 693.273499,291.953644 693.348389,298.741547 
	C693.596558,321.229797 693.852539,343.732941 693.690125,366.206299 
	C693.372131,410.186310 693.551331,454.164337 693.442322,498.142487 
	C693.368469,527.954285 693.661804,557.771057 693.696472,587.580444 
	C693.730713,617.060791 693.551697,646.550110 693.439758,676.035339 
	C693.374023,693.354126 693.302795,710.673401 693.388184,727.991760 
	C693.406067,731.624695 692.621704,733.408264 688.432434,733.392822 
	C652.274048,733.259644 616.114929,733.321777 579.956055,733.284607 
	C578.666992,733.283264 577.378296,732.855347 575.809692,732.261658 
M432.187012,489.831146 
	C399.821899,498.901184 367.055939,506.548615 335.183105,516.013245 
	C335.014893,519.127075 336.063660,520.660034 336.908203,522.276001 
	C342.555542,533.081787 350.600647,541.876709 359.932159,549.554810 
	C382.368317,568.015503 408.431213,575.002197 437.072266,573.907166 
	C451.154541,573.368713 451.158417,573.234558 450.452728,558.858093 
	C449.710388,543.734375 449.999756,528.591736 450.418335,513.452148 
	C450.668823,504.392303 450.464294,495.319885 450.464294,486.021698 
	C443.684906,486.120758 438.447418,488.467834 432.187012,489.831146 
M592.505127,451.893677 
	C589.175415,452.013245 585.834351,452.361267 582.518616,452.197601 
	C577.804810,451.965027 576.143921,453.785248 576.181335,458.620972 
	C576.378601,484.110291 576.264893,509.601929 576.296204,535.092773 
	C576.298157,536.701050 575.833374,538.434387 577.457397,540.433777 
	C615.336914,531.198547 653.332642,521.386841 691.755859,510.690704 
	C690.279297,507.810394 689.402527,505.857330 688.316467,504.028473 
	C685.422241,499.154510 682.335938,494.391052 678.608215,490.109436 
	C656.125488,464.285919 627.497437,452.095093 592.505127,451.893677 
M362.648895,364.066162 
	C361.872742,368.866699 362.122864,373.706055 362.111053,378.534576 
	C362.053101,402.174866 362.744995,425.811066 361.419800,449.454834 
	C360.777008,460.923004 365.185455,470.593781 374.885529,477.474121 
	C378.309235,479.902588 381.821075,480.643250 385.685059,479.031433 
	C389.592316,477.401520 389.970825,474.017792 389.992950,470.307983 
	C390.146973,444.497803 390.299347,418.686951 390.641205,392.878845 
	C390.832886,378.408356 389.633545,363.898773 391.651306,349.472687 
	C392.578827,342.841217 394.762238,336.549652 396.899841,330.237518 
	C398.304504,326.089661 396.491730,322.027863 393.454987,322.667633 
	C386.012451,324.235626 378.720551,325.854248 373.230255,332.337555 
	C365.566223,341.387726 361.982391,351.418823 362.648895,364.066162 
M625.701965,694.187256 
	C628.215393,688.713257 630.039185,683.031067 630.883667,677.051941 
	C632.518860,665.474243 632.330872,653.852295 632.189087,642.189148 
	C631.857056,614.877319 631.978943,587.560059 631.844788,560.245422 
	C631.833252,557.890320 632.562256,555.114868 629.494202,553.720459 
	C626.644348,552.425171 624.101074,553.441833 622.020874,555.089172 
	C615.834229,559.988281 610.764282,565.706360 607.874817,573.349609 
	C603.214294,585.678040 603.078552,598.205994 603.773682,611.190674 
	C605.099976,635.966553 602.258972,660.763000 603.031250,685.580078 
	C603.217529,691.565369 602.723022,697.567688 604.234558,703.463684 
	C604.979736,706.370422 606.255920,708.880432 609.374817,709.633606 
	C612.528015,710.395020 615.298096,709.409912 617.481384,706.957886 
	C620.718384,703.322510 623.197449,699.189087 625.701965,694.187256 
M389.548584,673.952393 
	C391.440399,650.506470 390.589478,627.049255 389.861084,603.591309 
	C389.728607,599.325806 387.986755,596.322327 383.828125,594.799316 
	C379.448639,593.195435 376.818176,595.448853 374.692780,598.762451 
	C368.156921,608.951904 365.100555,620.324097 364.176819,632.217529 
	C362.889282,648.795410 362.202393,665.419495 360.960236,682.001465 
	C360.437836,688.975220 359.087708,695.860413 362.056793,702.650940 
	C363.491150,705.931396 365.449066,708.304382 369.151367,708.925537 
	C373.027771,709.575867 375.397522,707.475159 377.492065,704.649231 
	C384.086029,695.752869 387.766968,685.705627 389.548584,673.952393 
M618.923645,336.414032 
	C609.075867,344.953461 604.998596,355.861969 604.992004,368.752716 
	C604.988342,375.888123 604.154968,383.033417 603.491150,390.155212 
	C602.865845,396.863586 602.903748,403.534729 605.067749,409.935883 
	C608.210205,419.231110 613.032532,427.238281 623.288269,430.197449 
	C629.972107,432.125977 631.843018,430.791901 631.884277,423.937164 
	C632.000610,404.615112 632.030823,385.292480 632.093628,365.970093 
	C632.125671,356.095825 633.148438,346.371704 636.406616,336.974670 
	C636.841187,335.721313 637.338379,334.429504 637.432007,333.128540 
	C637.829834,327.601074 635.342590,325.901581 630.259644,328.039978 
	C626.023499,329.822144 622.684631,332.805634 618.923645,336.414032 
z"/>
</svg>